<?xml version="1.0" encoding="UTF-8" standalone="no"?><svg xmlns="http://www.w3.org/2000/svg" xmlns:xlink="http://www.w3.org/1999/xlink" fill="#000000" height="400" preserveAspectRatio="xMidYMid meet" version="1" viewBox="117.0 56.0 277.6 400.0" width="277.6" zoomAndPan="magnify"><g fill="#fddc30" id="change1_1"><path d="M 188.292969 156.5 C 205.296875 156.5 219.082031 151.078125 219.082031 144.394531 C 219.082031 139.539062 211.816406 135.355469 201.328125 133.425781 C 200.332031 134.742188 199.371094 135.980469 198.464844 137.132812 C 205.890625 138.273438 210.992188 140.628906 210.992188 143.351562 C 210.992188 147.195312 200.828125 150.3125 188.292969 150.3125 C 175.757812 150.3125 165.59375 147.195312 165.59375 143.351562 C 165.59375 140.628906 170.695312 138.273438 178.121094 137.132812 C 177.210938 135.980469 176.253906 134.742188 175.257812 133.425781 C 164.769531 135.355469 157.503906 139.539062 157.503906 144.394531 C 157.503906 151.078125 171.289062 156.5 188.292969 156.5" fill="inherit"/><path d="M 175.09375 85.46875 C 175.09375 78.179688 181.003906 72.269531 188.292969 72.269531 C 195.582031 72.269531 201.492188 78.179688 201.492188 85.46875 C 201.492188 92.761719 195.582031 98.671875 188.292969 98.671875 C 181.003906 98.671875 175.09375 92.761719 175.09375 85.46875 Z M 219.082031 86.789062 C 219.082031 69.785156 205.296875 56 188.292969 56 C 171.289062 56 157.503906 69.785156 157.503906 86.789062 C 157.503906 109.09375 188.292969 143.089844 188.292969 143.089844 C 188.292969 143.089844 219.082031 109.09375 219.082031 86.789062" fill="inherit"/><path d="M 298.902344 432.925781 C 297.90625 434.242188 296.949219 435.484375 296.039062 436.632812 C 303.46875 437.773438 308.566406 440.128906 308.566406 442.851562 C 308.566406 446.695312 298.402344 449.8125 285.867188 449.8125 C 273.332031 449.8125 263.171875 446.695312 263.171875 442.851562 C 263.171875 440.128906 268.269531 437.773438 275.695312 436.632812 C 274.789062 435.484375 273.828125 434.242188 272.832031 432.925781 C 262.34375 434.855469 255.078125 439.039062 255.078125 443.894531 C 255.078125 450.582031 268.863281 456 285.867188 456 C 302.871094 456 316.65625 450.582031 316.65625 443.894531 C 316.65625 439.039062 309.390625 434.855469 298.902344 432.925781" fill="inherit"/><path d="M 285.867188 398.171875 C 278.578125 398.171875 272.667969 392.261719 272.667969 384.972656 C 272.667969 377.679688 278.578125 371.769531 285.867188 371.769531 C 293.160156 371.769531 299.066406 377.679688 299.066406 384.972656 C 299.066406 392.261719 293.160156 398.171875 285.867188 398.171875 Z M 285.867188 355.5 C 268.863281 355.5 255.078125 369.285156 255.078125 386.292969 C 255.078125 408.59375 285.867188 442.589844 285.867188 442.589844 C 285.867188 442.589844 316.65625 408.59375 316.65625 386.292969 C 316.65625 369.285156 302.871094 355.5 285.867188 355.5" fill="inherit"/><path d="M 245.929688 150.824219 C 242.730469 150.339844 239.46875 149.859375 236.140625 149.382812 C 233.4375 148.980469 230.949219 150.863281 230.5625 153.558594 C 230.175781 156.25 232.046875 158.746094 234.738281 159.132812 C 238.039062 159.609375 241.277344 160.085938 244.453125 160.566406 C 244.703125 160.605469 244.949219 160.625 245.199219 160.625 C 247.59375 160.625 249.691406 158.875 250.0625 156.433594 C 250.46875 153.746094 248.621094 151.234375 245.929688 150.824219" fill="inherit"/><path d="M 127.1875 386.375 C 126.160156 383.859375 123.285156 382.644531 120.769531 383.671875 C 118.246094 384.699219 117.039062 387.578125 118.066406 390.097656 C 120.523438 396.128906 125.050781 402.019531 131.511719 407.601562 C 132.441406 408.40625 133.589844 408.800781 134.730469 408.800781 C 136.109375 408.800781 137.484375 408.222656 138.460938 407.09375 C 140.238281 405.035156 140.011719 401.925781 137.953125 400.144531 C 132.675781 395.589844 129.058594 390.957031 127.1875 386.375" fill="inherit"/><path d="M 186.707031 324.9375 C 192.375 322.257812 198.457031 319.554688 204.785156 316.910156 C 207.296875 315.863281 208.480469 312.976562 207.433594 310.46875 C 206.382812 307.957031 203.496094 306.769531 200.984375 307.820312 C 194.519531 310.523438 188.292969 313.285156 182.492188 316.035156 C 180.035156 317.195312 178.984375 320.136719 180.148438 322.59375 C 180.988281 324.371094 182.757812 325.414062 184.601562 325.414062 C 185.308594 325.414062 186.027344 325.261719 186.707031 324.9375" fill="inherit"/><path d="M 149.746094 344.980469 C 150.710938 344.980469 151.6875 344.695312 152.539062 344.105469 C 157.421875 340.738281 163.015625 337.304688 169.167969 333.894531 C 171.546875 332.574219 172.410156 329.578125 171.089844 327.195312 C 169.769531 324.816406 166.777344 323.957031 164.390625 325.273438 C 157.960938 328.839844 152.085938 332.449219 146.945312 335.996094 C 144.703125 337.542969 144.140625 340.613281 145.6875 342.851562 C 146.644531 344.234375 148.179688 344.980469 149.746094 344.980469" fill="inherit"/><path d="M 171.050781 419.4375 C 164.585938 416.632812 158.710938 413.746094 153.59375 410.859375 C 151.230469 409.523438 148.222656 410.359375 146.882812 412.726562 C 145.546875 415.097656 146.382812 418.101562 148.75 419.4375 C 154.164062 422.496094 160.351562 425.535156 167.132812 428.476562 C 167.769531 428.753906 168.433594 428.886719 169.089844 428.886719 C 170.992188 428.886719 172.804688 427.777344 173.613281 425.917969 C 174.695312 423.421875 173.550781 420.523438 171.050781 419.4375" fill="inherit"/><path d="M 264.097656 163.722656 C 270.871094 164.875 277.449219 166.070312 283.644531 167.277344 C 283.960938 167.339844 284.277344 167.367188 284.589844 167.367188 C 286.902344 167.367188 288.960938 165.734375 289.417969 163.382812 C 289.9375 160.710938 288.195312 158.125 285.523438 157.605469 C 279.253906 156.386719 272.601562 155.175781 265.753906 154.007812 C 263.085938 153.558594 260.527344 155.355469 260.070312 158.039062 C 259.613281 160.722656 261.417969 163.265625 264.097656 163.722656" fill="inherit"/><path d="M 120.925781 373.390625 C 121.527344 373.636719 122.152344 373.75 122.765625 373.75 C 124.714844 373.75 126.5625 372.585938 127.335938 370.664062 C 129.214844 366 132.707031 361.117188 137.714844 356.148438 C 139.644531 354.230469 139.65625 351.113281 137.742188 349.179688 C 135.828125 347.253906 132.710938 347.238281 130.777344 349.152344 C 124.8125 355.070312 120.582031 361.066406 118.199219 366.980469 C 117.179688 369.503906 118.402344 372.375 120.925781 373.390625" fill="inherit"/><path d="M 394.242188 209.820312 C 393.195312 202.957031 388.898438 196.496094 381.464844 190.617188 C 379.328125 188.929688 376.234375 189.289062 374.542969 191.421875 C 372.855469 193.558594 373.214844 196.65625 375.351562 198.34375 C 380.765625 202.625 383.84375 206.988281 384.5 211.304688 C 384.875 213.742188 386.972656 215.492188 389.363281 215.492188 C 389.613281 215.492188 389.863281 215.472656 390.113281 215.433594 C 392.800781 215.023438 394.652344 212.511719 394.242188 209.820312" fill="inherit"/><path d="M 386.125 224.953125 C 384.007812 223.25 380.90625 223.582031 379.195312 225.699219 C 375.984375 229.6875 371.335938 233.902344 365.390625 238.214844 C 363.191406 239.816406 362.699219 242.894531 364.300781 245.097656 C 365.261719 246.425781 366.765625 247.128906 368.289062 247.128906 C 369.292969 247.128906 370.304688 246.824219 371.179688 246.191406 C 377.828125 241.363281 383.109375 236.550781 386.871094 231.882812 C 388.574219 229.761719 388.242188 226.660156 386.125 224.953125" fill="inherit"/><path d="M 324.816406 166.5625 C 318.730469 164.917969 312.140625 163.292969 305.21875 161.730469 C 302.570312 161.125 299.929688 162.792969 299.328125 165.449219 C 298.730469 168.101562 300.394531 170.738281 303.050781 171.339844 C 309.835938 172.871094 316.292969 174.464844 322.246094 176.074219 C 322.675781 176.191406 323.109375 176.246094 323.535156 176.246094 C 325.707031 176.246094 327.691406 174.796875 328.285156 172.601562 C 328.996094 169.976562 327.441406 167.269531 324.816406 166.5625" fill="inherit"/><path d="M 208.09375 432.839844 C 201.464844 430.796875 195.15625 428.707031 189.347656 426.625 C 186.765625 425.703125 183.964844 427.039062 183.046875 429.601562 C 182.128906 432.164062 183.460938 434.984375 186.023438 435.902344 C 191.976562 438.03125 198.425781 440.171875 205.191406 442.257812 C 205.675781 442.40625 206.164062 442.476562 206.644531 442.476562 C 208.75 442.476562 210.699219 441.117188 211.351562 439 C 212.152344 436.398438 210.695312 433.640625 208.09375 432.839844" fill="inherit"/><path d="M 365.714844 186.4375 C 366.855469 183.96875 365.777344 181.039062 363.308594 179.898438 C 357.757812 177.335938 351.339844 174.816406 344.234375 172.410156 C 341.660156 171.539062 338.863281 172.925781 337.992188 175.5 C 337.121094 178.078125 338.5 180.871094 341.078125 181.746094 C 347.855469 184.035156 353.945312 186.425781 359.175781 188.84375 C 359.84375 189.152344 360.546875 189.296875 361.238281 189.296875 C 363.101562 189.296875 364.882812 188.238281 365.714844 186.4375" fill="inherit"/><path d="M 348.960938 248.601562 C 343.726562 251.546875 337.839844 254.59375 331.472656 257.648438 C 329.019531 258.824219 327.984375 261.765625 329.160156 264.21875 C 330.007812 265.988281 331.769531 267.015625 333.605469 267.015625 C 334.320312 267.015625 335.046875 266.859375 335.734375 266.53125 C 342.296875 263.382812 348.371094 260.238281 353.792969 257.1875 C 356.164062 255.851562 357.003906 252.847656 355.671875 250.476562 C 354.332031 248.109375 351.332031 247.261719 348.960938 248.601562" fill="inherit"/><path d="M 313.433594 265.792969 C 307.675781 268.257812 301.488281 270.78125 295.046875 273.304688 C 292.515625 274.296875 291.265625 277.15625 292.257812 279.691406 C 293.015625 281.632812 294.878906 282.820312 296.847656 282.820312 C 297.445312 282.820312 298.050781 282.710938 298.640625 282.480469 C 305.175781 279.921875 311.457031 277.355469 317.308594 274.851562 C 319.808594 273.785156 320.972656 270.890625 319.902344 268.386719 C 318.832031 265.886719 315.925781 264.71875 313.433594 265.792969" fill="inherit"/><path d="M 259.265625 296.632812 C 259.800781 296.632812 260.347656 296.542969 260.886719 296.359375 C 266.792969 294.296875 273.167969 292.039062 279.816406 289.601562 C 282.375 288.667969 283.683594 285.835938 282.75 283.28125 C 281.808594 280.726562 278.972656 279.417969 276.429688 280.351562 C 269.832031 282.765625 263.503906 285.011719 257.640625 287.054688 C 255.074219 287.949219 253.714844 290.757812 254.613281 293.328125 C 255.320312 295.359375 257.226562 296.632812 259.265625 296.632812" fill="inherit"/><path d="M 238.722656 293.585938 L 233.8125 295.289062 C 229.011719 296.96875 224.28125 298.6875 219.757812 300.386719 C 217.207031 301.347656 215.921875 304.1875 216.878906 306.734375 C 217.621094 308.710938 219.5 309.925781 221.492188 309.925781 C 222.066406 309.925781 222.65625 309.824219 223.226562 309.609375 C 227.679688 307.933594 232.335938 306.246094 237.0625 304.589844 L 241.9375 302.898438 C 244.511719 302.011719 245.875 299.207031 244.988281 296.632812 C 244.097656 294.0625 241.285156 292.695312 238.722656 293.585938" fill="inherit"/><path d="M 236.664062 440.851562 C 233.425781 440.019531 230.269531 439.1875 227.195312 438.351562 C 224.558594 437.632812 221.859375 439.195312 221.148438 441.820312 C 220.4375 444.445312 221.992188 447.152344 224.613281 447.863281 C 227.734375 448.707031 230.933594 449.550781 234.214844 450.394531 C 234.625 450.5 235.039062 450.546875 235.441406 450.546875 C 237.636719 450.546875 239.640625 449.070312 240.210938 446.847656 C 240.886719 444.210938 239.300781 441.527344 236.664062 440.851562" fill="inherit"/></g></svg>